<svg width="165" height="52" viewBox="0 0 165 52" fill="none" xmlns="http://www.w3.org/2000/svg">
<path d="M43.5835 38.3557C42.0612 38.3557 40.6838 37.9812 39.4514 37.232C38.219 36.4829 37.2403 35.4439 36.5153 34.1148C35.8146 32.7616 35.4642 31.2271 35.4642 29.5114V27.9165C35.4642 26.1767 35.8146 24.6422 36.5153 23.3131C37.2403 21.9841 38.219 20.945 39.4514 20.1959C40.6838 19.4468 42.0612 19.0722 43.5835 19.0722C44.9851 19.0722 46.2296 19.4105 47.317 20.0872C48.4044 20.7638 49.2623 21.7424 49.8905 23.0232H50.1805V19.6522H59.2423V37.7758H50.1805V34.4048H49.8905C49.2623 35.6855 48.4044 36.6642 47.317 37.3408C46.2296 38.0174 44.9851 38.3557 43.5835 38.3557ZM47.317 31.795C48.0419 31.795 48.634 31.5775 49.0931 31.1425C49.5764 30.6834 49.818 30.1397 49.818 29.5114V27.9165C49.818 27.2883 49.5764 26.7566 49.0931 26.3217C48.634 25.8625 48.0419 25.633 47.317 25.633C46.6404 25.633 46.0483 25.8625 45.5409 26.3217C45.0576 26.7566 44.8159 27.2883 44.8159 27.9165V29.5114C44.8159 30.1397 45.0576 30.6834 45.5409 31.1425C46.0483 31.5775 46.6404 31.795 47.317 31.795ZM59.8959 37.7758V12.4028H69.3201V37.7758H59.8959ZM80.5975 38.3557C78.3985 38.3557 76.4412 37.9812 74.7255 37.232C73.034 36.4588 71.7049 35.4076 70.7383 34.0785C69.7959 32.7495 69.3247 31.2271 69.3247 29.5114V27.9165C69.3247 26.2008 69.7959 24.6785 70.7383 23.3494C71.7049 22.0203 73.034 20.9812 74.7255 20.2321C76.4412 19.4589 78.3985 19.0722 80.5975 19.0722C82.5549 19.0722 84.2947 19.3864 85.8171 20.0147C87.3637 20.6188 88.6202 21.4766 89.5868 22.5882C90.5776 23.6756 91.2059 24.9443 91.4717 26.3942L82.9173 27.7353C82.7724 27.107 82.5065 26.5754 82.1199 26.1404C81.7574 25.7055 81.25 25.488 80.5975 25.488C79.9209 25.488 79.341 25.7175 78.8577 26.1767C78.3985 26.6116 78.169 27.1433 78.169 27.7715V29.6564C78.169 30.2847 78.3985 30.8284 78.8577 31.2875C79.341 31.7225 79.9209 31.94 80.5975 31.94C81.25 31.94 81.7574 31.7225 82.1199 31.2875C82.5065 30.8526 82.7724 30.3209 82.9173 29.6926L91.4717 31.0338C91.2059 32.4837 90.5776 33.7644 89.5868 34.876C88.6202 35.9634 87.3637 36.8212 85.8171 37.4495C84.2947 38.0537 82.5549 38.3557 80.5975 38.3557ZM113.613 19.6522V37.7758H104.551V33.0636H104.261C103.898 34.9968 103.113 36.3621 101.905 37.1596C100.721 37.957 99.3676 38.3557 97.8452 38.3557C96.6611 38.3557 95.5375 38.1141 94.4742 37.6308C93.411 37.1233 92.5531 36.338 91.9007 35.2747C91.2482 34.1873 90.922 32.7857 90.922 31.07V19.6522H100.346V28.4965C100.346 29.2939 100.503 29.9343 100.817 30.4176C101.156 30.8767 101.627 31.1063 102.231 31.1063C102.811 31.1063 103.282 30.8767 103.645 30.4176C104.007 29.9343 104.188 29.2939 104.188 28.4965V19.6522H113.613ZM114.281 37.7758V12.4028H123.705V37.7758H114.281ZM131.865 38.3557C130.343 38.3557 128.965 37.9812 127.733 37.232C126.501 36.4829 125.522 35.4439 124.797 34.1148C124.096 32.7616 123.746 31.2271 123.746 29.5114V27.9165C123.746 26.1767 124.096 24.6422 124.797 23.3131C125.522 21.9841 126.501 20.945 127.733 20.1959C128.965 19.4468 130.343 19.0722 131.865 19.0722C133.267 19.0722 134.511 19.4105 135.599 20.0872C136.686 20.7638 137.544 21.7424 138.172 23.0232H138.462V19.6522H147.524V37.7758H138.462V34.4048H138.172C137.544 35.6855 136.686 36.6642 135.599 37.3408C134.511 38.0174 133.267 38.3557 131.865 38.3557ZM135.599 31.795C136.324 31.795 136.916 31.5775 137.375 31.1425C137.858 30.6834 138.1 30.1397 138.1 29.5114V27.9165C138.1 27.2883 137.858 26.7566 137.375 26.3217C136.916 25.8625 136.324 25.633 135.599 25.633C134.922 25.633 134.33 25.8625 133.822 26.3217C133.339 26.7566 133.098 27.2883 133.098 27.9165V29.5114C133.098 30.1397 133.339 30.6834 133.822 31.1425C134.33 31.5775 134.922 31.795 135.599 31.795Z" fill="#3F5BA4"/>
<circle cx="96.0926" cy="15.6693" r="2.83181" fill="#3F5BA4"/>
<path d="M104.022 17.3684H113.461" stroke="#3F5BA4" stroke-width="2.26545"/>
<path d="M26.7511 37.493C24.0237 38.4779 21.4267 38.8633 18.96 38.6493C16.4934 38.4352 14.3459 37.6821 12.5175 36.3897C10.7119 35.0891 9.40692 33.3252 8.60259 31.0978L7.86392 29.0523C7.05138 26.8022 6.92827 24.6114 7.49458 22.48C8.07541 20.3177 9.24623 18.3662 11.007 16.6256C12.7679 14.885 15.012 13.5222 17.7393 12.5373C20.1485 11.6674 22.47 11.2658 24.7037 11.3327C26.9373 11.3997 28.9295 11.9006 30.6802 12.8356C32.4455 13.7397 33.7855 15.0671 34.7003 16.8178L25.6298 22.3285C25.2024 21.4295 24.5102 20.7931 23.553 20.4193C22.6105 20.0146 21.6164 20.001 20.5709 20.3786C19.4572 20.7808 18.6412 21.4736 18.1229 22.4573C17.6046 23.4409 17.526 24.4327 17.8871 25.4328L18.6257 27.4783C18.9869 28.4784 19.681 29.1912 20.7082 29.6167C21.7354 30.0422 22.8059 30.0539 23.9195 29.6517C24.965 29.2742 25.7252 28.64 26.1999 27.7492C26.6892 26.8274 26.8111 25.8842 26.5655 24.9195L37.064 23.3636C37.4706 25.2721 37.2879 27.1494 36.5157 28.9954C35.7663 30.8333 34.5538 32.4915 32.8783 33.9701C31.2027 35.4487 29.1603 36.623 26.7511 37.493Z" fill="#3F5BA4"/>
<path d="M151.447 16.4494V12.9682H153.372L153.947 14.5815L154.532 12.9682H156.447V16.4494H155.098V14.6569L154.457 16.4494H153.428L152.787 14.6098V16.4494H151.447ZM148.73 16.4494V14.1192H147.702V12.9682H151.136V14.1192H150.117V16.4494H148.73Z" fill="#3F5BA4"/>
</svg>
